<?xml version="1.0" encoding="UTF-8" standalone="no"?>
<!-- Created with Inkscape (http://www.inkscape.org/) -->

<svg
   xmlns:dc="http://purl.org/dc/elements/1.1/"
   xmlns:cc="http://creativecommons.org/ns#"
   xmlns:rdf="http://www.w3.org/1999/02/22-rdf-syntax-ns#"
   xmlns:svg="http://www.w3.org/2000/svg"
   xmlns="http://www.w3.org/2000/svg"
   xmlns:sodipodi="http://sodipodi.sourceforge.net/DTD/sodipodi-0.dtd"
   xmlns:inkscape="http://www.inkscape.org/namespaces/inkscape"
   width="1000"
   height="1400"
   id="svg11823"
   version="1.1"
   inkscape:version="0.49 r12742"
   sodipodi:docname="origin-index-logo.svg"
   viewBox="0 0 1000 1400">
  <defs
     id="defs11825" />
  <sodipodi:namedview
     id="base"
     pagecolor="#303030"
     bordercolor="#666666"
     borderopacity="1.0"
     inkscape:pageopacity="0"
     inkscape:pageshadow="2"
     inkscape:zoom="0.12489586"
     inkscape:cx="-429.8145"
     inkscape:cy="1218.2923"
     inkscape:document-units="px"
     inkscape:current-layer="layer1"
     showgrid="false"
     borderlayer="true"
     inkscape:showpageshadow="false"
     showguides="false"
     inkscape:guide-bbox="true"
     inkscape:snap-global="true">
    <sodipodi:guide
       orientation="0,1"
       position="603.75299,849.9581"
       id="guide9136" />
    <sodipodi:guide
       orientation="0,1"
       position="615.76299,782.65203"
       id="guide9138" />
  </sodipodi:namedview>
  <metadata
     id="metadata11828">
    <rdf:RDF>
      <cc:Work
         rdf:about="">
        <dc:format>image/svg+xml</dc:format>
        <dc:type
           rdf:resource="http://purl.org/dc/dcmitype/StillImage" />
        <dc:title></dc:title>
      </cc:Work>
    </rdf:RDF>
  </metadata>
  <g
     inkscape:label="Layer 1"
     inkscape:groupmode="layer"
     id="layer1"
     transform="translate(0,347.63782)">
    <g
       transform="translate(470.74568,-548.12584)"
       inkscape:label="Layer 1"
       id="layer1-4">
      <g
         id="g3187">
        <g
           id="g6186"
           transform="matrix(1.6754546,0,0,-1.6917106,-334.8381,486.74995)">
          <path
             inkscape:connector-curvature="0"
             d="m 0,0 c 0,-3.802 1.016,-6.81 3.047,-9.023 2.082,-2.24 4.83,-3.36 8.242,-3.36 3.438,0 6.184,1.107 8.242,3.32 2.057,2.214 3.086,5.17 3.086,8.868 0,3.697 -1.029,6.653 -3.086,8.867 -2.084,2.24 -4.832,3.359 -8.242,3.359 C 7.93,12.031 5.207,10.912 3.125,8.672 1.041,6.432 0,3.542 0,0 m -8.984,0.156 c 0,5.495 1.964,10.17 5.898,14.024 3.932,3.854 8.723,5.781 14.375,5.781 5.676,0 10.494,-1.94 14.453,-5.82 3.906,-3.881 5.86,-8.646 5.86,-14.297 0,-5.703 -1.967,-10.482 -5.899,-14.337 -3.959,-3.828 -8.816,-5.742 -14.57,-5.742 -5.703,0 -10.483,1.953 -14.336,5.86 -3.856,3.854 -5.781,8.698 -5.781,14.531"
             style="fill:#ef2e32;fill-opacity:1;fill-rule:nonzero;stroke:none"
             id="path6188" />
        </g>
        <g
           id="g6190"
           transform="matrix(1.686978,0,0,-1.686978,-271.48386,478.4054)">
          <path
             inkscape:connector-curvature="0"
             d="M -0.22372373,0.2878685 C -0.25212828,11.826133 11.603729,17.276761 19.320637,15.246547 l -0.02435,-8.8620279 c 0,0.1592521 -1.718476,0.1973124 -3.32942,0.1973124 -4.86225,0 -7.2918544,-3.6247378 -7.2918544,-10.8762164 l 0,-19.7582761 -8.91598595,0"
             style="fill:#ffffff;fill-opacity:1;fill-rule:nonzero;stroke:none"
             id="path6192" />
        </g>
        <path
           style="fill:#ffffff;fill-opacity:1;fill-rule:nonzero;stroke:none"
           d="m -220.42074,429.98171 c -2.04896,0 -3.78435,0.77087 -5.25304,2.27965 -1.46869,1.51048 -2.2166,3.29938 -2.2166,5.37123 0,2.17805 0.74791,4.01859 2.2166,5.52737 1.46869,1.51047 3.23038,2.27964 5.31376,2.27964 2.08339,0 3.84913,-0.76917 5.28341,-2.27964 1.46869,-1.50878 2.18623,-3.32227 2.18623,-5.46492 0,-2.14096 -0.71754,-3.95861 -2.18623,-5.43368 -1.4687,-1.50878 -3.26075,-2.27965 -5.34413,-2.27965 z m -7.166,22.82772 0,66.17228 14.39272,0 0,-66.17228 -14.39272,0 z"
           id="path6194"
           inkscape:connector-curvature="0" />
        <path
           inkscape:connector-curvature="0"
           d="m -110.19179,518.98171 -14.39719,0 0,-66.17171 14.39719,0 0,66.17171 z m -14.69859,-81.3591 c 0,-2.07208 0.7355,-3.8626 2.2016,-5.37493 1.46772,-1.50896 3.2254,-2.26597 5.27301,-2.26597 2.08037,0 3.85607,0.75701 5.32379,2.26597 1.46609,1.47524 2.2016,3.28599 2.2016,5.4272 0,2.14289 -0.73551,3.9705 -2.2016,5.47947 -1.43333,1.51064 -3.19099,2.26597 -5.27301,2.26597 -2.08038,0 -3.85607,-0.75533 -5.32379,-2.26597 -1.4661,-1.50897 -2.2016,-3.35344 -2.2016,-5.53174"
           style="fill:#ffffff;fill-opacity:1;fill-rule:nonzero;stroke:none"
           id="path6196" />
        <g
           transform="matrix(0.99954814,0,0,1.0230005,-1053.6075,-130.43009)"
           id="g6447">
          <text
             style="font-size:20.24373627px;font-style:normal;font-variant:normal;font-weight:normal;font-stretch:normal;fill:#ffffff;font-family:Interstate-Bold;-inkscape-font-specification:Interstate-Bold"
             y="563.15424"
             x="661.63574"
             id="text6218">
            <tspan
               id="tspan6220"
               sodipodi:role="line"
               y="563.15424"
               x="661.63574 681.64642 700.73639 719.0141"
               style="font-size:27.078022px;font-style:normal;font-variant:normal;font-weight:normal;font-stretch:normal;writing-mode:lr-tb;fill:#ffffff;fill-opacity:1;fill-rule:nonzero;stroke:none;font-family:Interstate-Bold;-inkscape-font-specification:Interstate-Bold">OPEN</tspan>
          </text>
          <text
             style="font-size:20.24373627px;font-style:normal;font-variant:normal;font-weight:normal;font-stretch:normal;fill:#ffffff;font-family:Interstate-Light;-inkscape-font-specification:Interstate-Light"
             y="563.15424"
             x="739.91827"
             id="text6222">
            <tspan
               id="tspan6224"
               sodipodi:role="line"
               y="563.15424"
               x="739.91827 756.62543 775.93207 783.97424 799.48993"
               style="font-size:27.078022px;font-style:normal;font-variant:normal;font-weight:normal;font-stretch:normal;writing-mode:lr-tb;fill:#ffffff;fill-opacity:1;fill-rule:nonzero;stroke:none;font-family:Interstate-Light;-inkscape-font-specification:Interstate-Light">SHIFT</tspan>
          </text>
        </g>
        <path
           style="fill:#ffffff;fill-opacity:1;fill-rule:nonzero;stroke:none"
           d="m -168.92163,452.98171 c -9.468,0 -17.50419,3.23015 -24.09375,9.75 -6.58957,6.51986 -9.875,14.45575 -9.875,23.75 0,9.86944 3.22862,18.04434 9.6875,24.5625 6.4572,6.60951 14.47613,9.9375 24.03125,9.9375 4.31711,0 8.3175,-0.67059 12.03125,-1.96875 l 4.71875,7.3125 c 6.61127,10.23243 6.51761,17.54545 -0.28125,21.90625 -2.25256,1.4448 -12.07336,5.49186 -12.1875,5.25 l 6.3125,13.5 c 13.06837,-2.35753 38.3406,-17.2133 22.78125,-42.1875 l -8.84375,-13.6875 c 6.49464,-6.49521 9.75,-14.51566 9.75,-24.09375 0,-9.55817 -3.26817,-17.62197 -9.8125,-24.1875 -6.63145,-6.56384 -14.7072,-9.84375 -24.21875,-9.84375 z m 0,13.40625 c 5.71497,0 10.32253,1.89806 13.8125,5.6875 3.44809,3.74544 5.15625,8.74575 5.15625,15 0,6.25595 -1.70816,11.25625 -5.15625,15 -3.44641,3.74376 -8.05229,5.59375 -13.8125,5.59375 -5.71498,0 -10.32253,-1.86512 -13.8125,-5.65625 -3.40285,-3.74206 -5.09375,-8.84767 -5.09375,-15.28125 0,-5.99035 1.72877,-10.86682 5.21875,-14.65625 3.48997,-3.78944 8.05964,-5.6875 13.6875,-5.6875 z"
           id="path6212"
           inkscape:connector-curvature="0" />
        <path
           inkscape:connector-curvature="0"
           style="fill:#ffffff;fill-opacity:1;fill-rule:nonzero;stroke:none"
           d="m -71.118317,451.99081 c -0.437917,0.01 -0.870759,0.0288 -1.300993,0.0626 -0.86046,0.0674 -1.689002,0.17942 -2.509059,0.34435 -0.04171,0.008 -0.08218,0.0234 -0.123905,0.0312 -0.366706,0.0762 -0.727595,0.15442 -1.084161,0.25043 -10.496634,2.41876 -20.756929,11.11447 -20.722969,25.23117 l -0.03098,41.07109 14.682642,0 0,-33.33895 c 0,-12.12121 3.935364,-18.23166 11.80187,-18.34425 7.866506,0.11259 11.80187,6.22304 11.80187,18.34425 l 0,33.33895 14.713618,0 -0.03098,-41.07109 c 0.03393,-14.10601 -10.234631,-22.80472 -20.722969,-25.23117 -0.409568,-0.0948 -0.798379,-0.20621 -1.208066,-0.28173 -0.820057,-0.16493 -1.679575,-0.27688 -2.540035,-0.34435 -0.02044,-0.002 -0.04149,0.002 -0.06195,0 -0.41723,-0.0357 -0.825628,-0.0477 -1.239041,-0.0626 -0.03128,-6.8e-4 -0.06161,5.6e-4 -0.09293,0 -0.443976,-0.0143 -0.894045,-0.009 -1.331962,1e-4 z"
           id="path3058" />
        <g
           transform="matrix(1.711352,0,0,-1.6896526,-271.86129,477.91977)"
           id="g3052" />
      </g>
      <g
         id="g3068"
         transform="translate(-1055.1949,-136.88203)">
        <g
           transform="matrix(1.686978,0,0,-1.686978,867.18996,623.99409)"
           id="g3070" />
      </g>
    </g>
    <g
       id="g8264"
       transform="matrix(1.711352,0,0,-1.6896526,198.88439,228.4418)" />
    <g
       id="g8268"
       transform="matrix(1.686978,0,0,-1.686978,282.74074,237.63409)" />
    <g
       id="g9336"
       inkscape:export-xdpi="15"
       inkscape:export-ydpi="15">
      <g
         inkscape:export-ydpi="15"
         inkscape:export-xdpi="15"
         id="g9313">
        <g
           id="g9226">
          <g
             transform="matrix(0.99954814,0,0,1.0230005,-582.86182,-379.90806)"
             id="g8250">
            <text
               style="font-size:20.24373627px;font-style:normal;font-variant:normal;font-weight:normal;font-stretch:normal;fill:#ffffff;font-family:Interstate-Bold;-inkscape-font-specification:Interstate-Bold"
               y="563.15424"
               x="661.63574"
               id="text8252">
              <tspan
                 id="tspan8254"
                 sodipodi:role="line"
                 y="563.15424"
                 x="661.63574 681.64642 700.73639 719.0141"
                 style="font-size:27.078022px;font-style:normal;font-variant:normal;font-weight:normal;font-stretch:normal;writing-mode:lr-tb;fill:#ffffff;fill-opacity:1;fill-rule:nonzero;stroke:none;font-family:Interstate-Bold;-inkscape-font-specification:Interstate-Bold">OPEN</tspan>
            </text>
            <text
               style="font-size:20.24373627px;font-style:normal;font-variant:normal;font-weight:normal;font-stretch:normal;fill:#ffffff;font-family:Interstate-Light;-inkscape-font-specification:Interstate-Light"
               y="563.15424"
               x="739.91827"
               id="text8256">
              <tspan
                 id="tspan8258"
                 sodipodi:role="line"
                 y="563.15424"
                 x="739.91827 756.62543 775.93207 783.97424 799.48993"
                 style="font-size:27.078022px;font-style:normal;font-variant:normal;font-weight:normal;font-stretch:normal;writing-mode:lr-tb;fill:#ffffff;fill-opacity:1;fill-rule:nonzero;stroke:none;font-family:Interstate-Light;-inkscape-font-specification:Interstate-Light">SHIFT</tspan>
            </text>
          </g>
          <g
             id="g9216">
            <g
               transform="matrix(1.6754546,0,0,-1.6917106,135.90758,237.27198)"
               id="g8238">
              <path
                 id="path8240"
                 style="fill:#ef2e32;fill-opacity:1;fill-rule:nonzero;stroke:none"
                 d="m 0,0 c 0,-3.802 1.016,-6.81 3.047,-9.023 2.082,-2.24 4.83,-3.36 8.242,-3.36 3.438,0 6.184,1.107 8.242,3.32 2.057,2.214 3.086,5.17 3.086,8.868 0,3.697 -1.029,6.653 -3.086,8.867 -2.084,2.24 -4.832,3.359 -8.242,3.359 C 7.93,12.031 5.207,10.912 3.125,8.672 1.041,6.432 0,3.542 0,0 m -8.984,0.156 c 0,5.495 1.964,10.17 5.898,14.024 3.932,3.854 8.723,5.781 14.375,5.781 5.676,0 10.494,-1.94 14.453,-5.82 3.906,-3.881 5.86,-8.646 5.86,-14.297 0,-5.703 -1.967,-10.482 -5.899,-14.337 -3.959,-3.828 -8.816,-5.742 -14.57,-5.742 -5.703,0 -10.483,1.953 -14.336,5.86 -3.856,3.854 -5.781,8.698 -5.781,14.531"
                 inkscape:connector-curvature="0" />
            </g>
            <g
               transform="matrix(1.686978,0,0,-1.686978,199.26182,228.92743)"
               id="g8242">
              <path
                 id="path8244"
                 style="fill:#ffffff;fill-opacity:1;fill-rule:nonzero;stroke:none"
                 d="M -0.22372373,0.2878685 C -0.25212828,11.826133 11.603729,17.276761 19.320637,15.246547 l -0.02435,-8.8620279 c 0,0.1592521 -1.718476,0.1973124 -3.32942,0.1973124 -4.86225,0 -7.2918544,-3.6247378 -7.2918544,-10.8762164 l 0,-19.7582761 -8.91598595,0"
                 inkscape:connector-curvature="0" />
            </g>
            <path
               inkscape:connector-curvature="0"
               id="path8246"
               d="m 250.32494,180.50374 c -2.04896,0 -3.78435,0.77087 -5.25304,2.27965 -1.46869,1.51048 -2.2166,3.29938 -2.2166,5.37123 0,2.17805 0.74791,4.01859 2.2166,5.52737 1.46869,1.51047 3.23038,2.27964 5.31376,2.27964 2.08339,0 3.84913,-0.76917 5.28341,-2.27964 1.46869,-1.50878 2.18623,-3.32227 2.18623,-5.46492 0,-2.14096 -0.71754,-3.95861 -2.18623,-5.43368 -1.4687,-1.50878 -3.26075,-2.27965 -5.34413,-2.27965 z m -7.166,22.82772 0,66.17228 14.39272,0 0,-66.17228 -14.39272,0 z"
               style="fill:#ffffff;fill-opacity:1;fill-rule:nonzero;stroke:none" />
            <path
               id="path8248"
               style="fill:#ffffff;fill-opacity:1;fill-rule:nonzero;stroke:none"
               d="m 360.55389,269.50374 -14.39719,0 0,-66.17171 14.39719,0 0,66.17171 z m -14.69859,-81.3591 c 0,-2.07208 0.7355,-3.8626 2.2016,-5.37493 1.46772,-1.50896 3.2254,-2.26597 5.27301,-2.26597 2.08037,0 3.85607,0.75701 5.32379,2.26597 1.46609,1.47524 2.2016,3.28599 2.2016,5.4272 0,2.14289 -0.73551,3.9705 -2.2016,5.47947 -1.43333,1.51064 -3.19099,2.26597 -5.27301,2.26597 -2.08038,0 -3.85607,-0.75533 -5.32379,-2.26597 -1.4661,-1.50897 -2.2016,-3.35344 -2.2016,-5.53174"
               inkscape:connector-curvature="0" />
            <path
               inkscape:connector-curvature="0"
               id="path8260"
               d="m 301.82405,203.50374 c -9.468,0 -17.50419,3.23015 -24.09375,9.75 -6.58957,6.51986 -9.875,14.45575 -9.875,23.75 0,9.86944 3.22862,18.04434 9.6875,24.5625 6.4572,6.60951 14.47613,9.9375 24.03125,9.9375 4.31711,0 8.3175,-0.67059 12.03125,-1.96875 l 4.71875,7.3125 c 6.61127,10.23243 6.51761,17.54545 -0.28125,21.90625 -2.25256,1.4448 -12.07336,5.49186 -12.1875,5.25 l 6.3125,13.5 c 13.06837,-2.35753 38.3406,-17.2133 22.78125,-42.1875 l -8.84375,-13.6875 c 6.49464,-6.49521 9.75,-14.51566 9.75,-24.09375 0,-9.55817 -3.26817,-17.62197 -9.8125,-24.1875 -6.63145,-6.56384 -14.7072,-9.84375 -24.21875,-9.84375 z m 0,13.40625 c 5.71497,0 10.32253,1.89806 13.8125,5.6875 3.44809,3.74544 5.15625,8.74575 5.15625,15 0,6.25595 -1.70816,11.25625 -5.15625,15 -3.44641,3.74376 -8.05229,5.59375 -13.8125,5.59375 -5.71498,0 -10.32253,-1.86512 -13.8125,-5.65625 -3.40285,-3.74206 -5.09375,-8.84767 -5.09375,-15.28125 0,-5.99035 1.72877,-10.86682 5.21875,-14.65625 3.48997,-3.78944 8.05964,-5.6875 13.6875,-5.6875 z"
               style="fill:#ffffff;fill-opacity:1;fill-rule:nonzero;stroke:none" />
            <path
               id="path8262"
               d="m 399.62736,202.51284 c -0.43791,0.01 -0.87076,0.0288 -1.30099,0.0626 -0.86046,0.0674 -1.689,0.17942 -2.50906,0.34435 -0.0417,0.008 -0.0822,0.0234 -0.1239,0.0312 -0.36671,0.0762 -0.7276,0.15442 -1.08417,0.25043 -10.49663,2.41876 -20.75692,11.11447 -20.72296,25.23117 l -0.031,41.07109 14.68264,0 0,-33.33895 c 0,-12.12121 3.93536,-18.23166 11.80187,-18.34425 7.8665,0.11259 11.80187,6.22304 11.80187,18.34425 l 0,33.33895 14.71362,0 -0.031,-41.07109 c 0.0339,-14.10601 -10.23463,-22.80472 -20.72297,-25.23117 -0.40957,-0.0948 -0.79838,-0.20621 -1.20807,-0.28173 -0.82006,-0.16493 -1.67957,-0.27688 -2.54003,-0.34435 -0.0204,-0.002 -0.0415,0.002 -0.062,0 -0.41723,-0.0357 -0.82563,-0.0477 -1.23905,-0.0626 -0.0313,-6.8e-4 -0.0616,5.6e-4 -0.0929,0 -0.44398,-0.0143 -0.89405,-0.009 -1.33197,1e-4 z"
               style="fill:#ffffff;fill-opacity:1;fill-rule:nonzero;stroke:none"
               inkscape:connector-curvature="0" />
          </g>
        </g>
        <path
           inkscape:connector-curvature="0"
           d="m 503.33934,269.50374 -14.39719,0 0,-66.17171 14.39719,0 0,66.17171 z m -14.69859,-81.3591 c 0,-2.07208 0.7355,-3.8626 2.2016,-5.37493 1.46772,-1.50896 3.2254,-2.26597 5.27301,-2.26597 2.08037,0 3.85607,0.75701 5.32379,2.26597 1.46609,1.47524 2.2016,3.28599 2.2016,5.4272 0,2.14289 -0.73551,3.9705 -2.2016,5.47947 -1.43333,1.51064 -3.19099,2.26597 -5.27301,2.26597 -2.08038,0 -3.85607,-0.75533 -5.32379,-2.26597 -1.4661,-1.50897 -2.2016,-3.35344 -2.2016,-5.53174"
           style="fill:#ffffff;fill-opacity:1;fill-rule:nonzero;stroke:none"
           id="path8306" />
        <path
           inkscape:connector-curvature="0"
           style="fill:#ffffff;fill-opacity:1;fill-rule:nonzero;stroke:none"
           d="m 545.41281,202.51284 c -0.43791,0.01 -0.87076,0.0288 -1.30099,0.0626 -0.86046,0.0674 -1.689,0.17942 -2.50906,0.34435 -0.0417,0.008 -0.0822,0.0234 -0.1239,0.0312 -0.36671,0.0762 -0.7276,0.15442 -1.08417,0.25043 -10.49663,2.41876 -20.75692,11.11447 -20.72296,25.23117 l -0.031,41.07109 14.68264,0 0,-33.33895 c 0,-12.12121 3.93536,-18.23166 11.80187,-18.34425 7.8665,0.11259 11.80187,6.22304 11.80187,18.34425 l 0,33.33895 14.71362,0 -0.031,-41.07109 c 0.0339,-14.10601 -10.23463,-22.80472 -20.72297,-25.23117 -0.40957,-0.0948 -0.79838,-0.20621 -1.20807,-0.28173 -0.82006,-0.16493 -1.67957,-0.27688 -2.54003,-0.34435 -0.0204,-0.002 -0.0415,0.002 -0.062,0 -0.41723,-0.0357 -0.82563,-0.0477 -1.23905,-0.0626 -0.0313,-6.8e-4 -0.0616,5.6e-4 -0.0929,0 -0.44398,-0.0143 -0.89405,-0.009 -1.33197,1e-4 z"
           id="path8308" />
        <path
           style="font-style:normal;font-variant:normal;font-weight:normal;font-stretch:normal;text-indent:0;text-align:start;text-decoration:none;line-height:normal;letter-spacing:normal;word-spacing:normal;text-transform:none;direction:ltr;block-progression:tb;writing-mode:lr-tb;text-anchor:start;baseline-shift:baseline;color:#000000;color-interpolation:sRGB;color-interpolation-filters:linearRGB;fill:#ffffff;fill-opacity:1;stroke:none;stroke-width:14.00000095;marker:none;visibility:visible;display:inline;overflow:visible;enable-background:accumulate;clip-rule:nonzero;color-rendering:auto;image-rendering:auto;shape-rendering:auto;text-rendering:auto;font-family:sans-serif;-inkscape-font-specification:sans-serif"
           d="m 632.02295,170.73288 0,40.01481 c -5.90863,-6.39218 -11.24539,-8.17616 -18.28708,-8.17616 -9.11357,0 -15.80036,3.92095 -20.78998,9.76357 -5.54352,6.49119 -7.18126,14.71657 -7.21884,24.65195 l 0,0.027 0,0.0231 c 0.0372,9.93633 2.01132,18.30666 7.21677,24.65388 5.20543,6.3472 13.66081,9.66231 22.77432,9.76551 l 0.0916,0.002 0.0957,-0.002 c 6.84561,0.64838 13.96809,-2.63805 16.11751,-7.1745 l 0,5.39256 13.86733,0 0,-32.56802 c 1.2e-4,-0.0236 0.002,-0.0459 0.002,-0.0695 l 0,-0.0231 0,-0.027 c -1.1e-4,-0.0236 -0.002,-0.0458 -0.002,-0.0694 l 0,-66.18474 z m -16.2132,44.9211 c 6.01425,0.0845 9.83052,2.43602 12.21089,5.33891 2.3923,2.91742 4.28011,7.46025 4.31658,16.02117 -0.0364,8.56074 -1.92444,13.10441 -4.31658,16.02196 -2.38041,2.90327 -6.19631,5.25355 -12.21089,5.33812 -6.01291,-0.0851 -9.82998,-2.67696 -12.21087,-5.58011 -2.39296,-2.91783 -4.28238,-7.21972 -4.31877,-15.77997 0.0363,-8.5604 1.92783,-13.10348 4.32097,-16.02117 2.38084,-2.90277 6.1961,-5.25399 12.20867,-5.33891 z"
           id="path8331"
           inkscape:connector-curvature="0"
           sodipodi:nodetypes="cccacccsccccccccccccccscscscsc" />
        <path
           style="font-style:normal;font-variant:normal;font-weight:normal;font-stretch:normal;text-indent:0;text-align:start;text-decoration:none;line-height:normal;letter-spacing:normal;word-spacing:normal;text-transform:none;direction:ltr;block-progression:tb;writing-mode:lr-tb;text-anchor:start;baseline-shift:baseline;color:#000000;color-interpolation:sRGB;color-interpolation-filters:linearRGB;fill:#ffffff;fill-opacity:1;stroke:none;stroke-width:13;marker:none;visibility:visible;display:inline;overflow:visible;enable-background:accumulate;clip-rule:nonzero;color-rendering:auto;image-rendering:auto;shape-rendering:auto;text-rendering:auto;font-family:sans-serif;-inkscape-font-specification:sans-serif"
           d="m 689.86211,202.2528 -0.0843,0.002 c -8.99729,0.10116 -17.17998,3.29649 -22.27115,9.45898 -5.09117,6.16248 -7.08465,14.39425 -7.12231,24.26758 l 0,0.0234 0,0.0195 c 0.0372,9.87428 2.0312,18.1084 7.12231,24.27148 5.09109,6.16309 13.27336,9.35784 22.27115,9.45899 l 0.0843,0.002 0.0822,-0.002 c 8.99826,-0.10116 17.1833,-3.29702 22.27326,-9.46094 0.47857,-0.57953 0.92007,-1.18502 1.34479,-1.80078 l -10.94587,-5.93359 c -0.21023,0.30484 -0.41779,0.61728 -0.63867,0.88476 -2.57301,3.11591 -5.83379,4.6463 -12.11571,4.73242 -6.28314,-0.0858 -9.54366,-1.61627 -12.11781,-4.73242 -1.80986,-2.19096 -3.27119,-5.65725 -4.00695,-10.48828 l 44.5423,-8.6582 c 0,0 -0.088,-0.22219 -0.0927,-0.23438 l 0.10112,-0.01 c -0.20174,-8.63238 -1.45642,-16.44033 -6.0726,-22.33985 -5.09015,-6.16213 -13.27435,-9.35783 -22.27116,-9.45898 l -0.0822,-0.002 z m 0,11.58008 c 6.28079,0.0861 9.54072,1.61574 12.1136,4.73047 1.57569,1.90753 2.89144,4.77167 3.68867,8.67383 l -32.36547,6.17969 c 0.37011,-7.19359 2.1298,-12.04871 4.44538,-14.85157 2.57412,-3.11576 5.83504,-4.64666 12.11782,-4.73242 z"
           id="path9153"
           inkscape:connector-curvature="0" />
        <path
           style="font-style:normal;font-variant:normal;font-weight:normal;font-stretch:normal;text-indent:0;text-align:start;text-decoration:none;line-height:normal;letter-spacing:normal;word-spacing:normal;text-transform:none;direction:ltr;block-progression:tb;writing-mode:lr-tb;text-anchor:start;baseline-shift:baseline;color:#000000;color-interpolation:sRGB;color-interpolation-filters:linearRGB;fill:#ffffff;fill-opacity:1;fill-rule:nonzero;stroke:none;stroke-width:2;marker:none;visibility:visible;display:inline;overflow:visible;enable-background:accumulate;clip-rule:nonzero;color-rendering:auto;image-rendering:auto;shape-rendering:auto;text-rendering:auto;font-family:sans-serif;-inkscape-font-specification:sans-serif"
           d="m 721.89472,202.4032 21.19406,34.01562 -20.743,33.29102 15.36807,0 13.06001,-20.95899 13.0579,20.95899 15.37018,0 -20.7451,-33.29102 21.19617,-34.01562 -15.37017,0 -13.50898,21.68359 -13.51108,-21.68359 -15.36806,0 z"
           id="path9171"
           inkscape:connector-curvature="0" />
        <rect
           style="color:#000000;fill:#000000;fill-opacity:0;fill-rule:nonzero;stroke:none;stroke-width:13;marker:none;visibility:visible;display:inline;overflow:visible;enable-background:accumulate"
           id="rect9183"
           width="93.077545"
           height="32.02668"
           x="694.58282"
           y="163.62177" />
      </g>
    </g>
  </g>
</svg>
